<svg xmlns="http://www.w3.org/2000/svg" width="308" height="88.895" viewBox="0 0 308 88.895">
  <g id="aldo" transform="translate(-2481.928 908.215)">
    <path id="Caminho_572" data-name="Caminho 572" d="M2542.853-907.593H2528.71v86.585H2573.3V-834.14h-30.449Z" transform="translate(40.111 0.533)" fill="#d2121b"/>
    <path id="Caminho_573" data-name="Caminho 573" d="M2584.207-907.593h-25.976v86.585h25.976A43.236,43.236,0,0,0,2627.5-864.3,43.235,43.235,0,0,0,2584.207-907.593Zm0,73.454H2572.23v-60.322h11.977c16.451,0,29.294,12.844,29.294,30.16S2600.657-834.139,2584.207-834.139Z" transform="translate(65.421 0.533)" fill="#d2121b"/>
    <path id="Caminho_574" data-name="Caminho 574" d="M2644.34-908.215a44.466,44.466,0,0,0-44.447,44.447,44.466,44.466,0,0,0,44.447,44.447,44.466,44.466,0,0,0,44.447-44.447A44.466,44.466,0,0,0,2644.34-908.215Zm0,74.9a30.092,30.092,0,0,1-30.448-30.45,30.092,30.092,0,0,1,30.448-30.448,30,30,0,0,1,30.45,30.448A30,30,0,0,1,2644.34-833.318Z" transform="translate(101.141 0)" fill="#d2121b"/>
    <path id="Caminho_575" data-name="Caminho 575" d="M2551.611-845l-5.366-14.84-14.6-40.355a11.21,11.21,0,0,0-10.541-7.4,11.207,11.207,0,0,0-10.541,7.4l-14.582,40.318L2490.606-845l-8.678,23.994h15.3l5.379-15.89a44.226,44.226,0,0,0,18.5,4.042,44.24,44.24,0,0,0,18.5-4.042l5.381,15.89h15.3Zm-30.5-1.852a30.874,30.874,0,0,1-14.023-3.328l1.4-4.151,11.878-35.381a.865.865,0,0,1,1.638,0l11.82,35.212,1.412,4.3A31.024,31.024,0,0,1,2521.109-846.853Z" transform="translate(0 0.533)" fill="#d2121b"/>
  </g>
</svg>
