<?xml version="1.0" encoding="utf-8"?>
<!-- Generator: Adobe Illustrator 22.1.0, SVG Export Plug-In . SVG Version: 6.00 Build 0)  -->
<svg version="1.1" id="Layer_1" xmlns="http://www.w3.org/2000/svg" xmlns:xlink="http://www.w3.org/1999/xlink" x="0px" y="0px"
	 viewBox="0 0 796.4 181" style="enable-background:new 0 0 796.4 181;" xml:space="preserve">
<style type="text/css">
	.st0{fill:#FF0071;}
	.st1{fill:#FFFFFF;}
	.st2{fill:#2B2B2B;}
</style>
<g>
	<g>
		<path class="st1" d="M103.1,140.7c0,12.2-4.5,21.9-13.4,29.3c-9,7.3-20.3,11-34.1,11c-9.2,0-18.7-1.6-28.7-4.9
			C16.9,172.7,8,167.9,0,161.4l15.2-21.6c12.9,9.9,26.5,14.9,41.1,14.9c4.4,0,8-0.9,10.6-2.6c2.6-1.8,3.9-4.1,3.9-7
			c0-2.9-1.8-5.6-5.4-8c-3.6-2.4-8.8-4.7-15.6-6.9c-6.8-2.1-12-4-15.6-5.5c-3.6-1.5-7.7-3.7-12.3-6.7c-9.3-5.8-14-14.4-14-25.8
			c0-11.4,4.6-20.7,13.8-27.9c9.2-7.2,21-10.8,35.6-10.8c14.5,0,29.1,4.9,43.6,14.7l-12.9,23c-10.7-7.3-21.4-11-32-11
			c-10.6,0-16,2.9-16,8.7c0,3.2,1.7,5.7,5.1,7.6c3.4,1.8,9,4,16.8,6.4c7.8,2.4,13.4,4.3,16.6,5.6c3.3,1.3,7.2,3.3,11.8,6.1
			C98.8,119.8,103.1,128.5,103.1,140.7z"/>
		<path class="st1" d="M232.4,179.1H200v-14.9c-8.9,11.2-19.9,16.8-32.9,16.8c-13.1,0-24.1-3.8-32.9-11.4
			c-8.9-7.6-13.3-17.7-13.3-30.3c0-12.6,4.6-22.1,13.8-28.4c9.2-6.3,21.7-9.4,37.6-9.4h25.7v-0.7c0-13.2-7-19.7-20.9-19.7
			c-6,0-12.3,1.2-18.9,3.6c-6.7,2.4-12.3,5.3-16.9,8.8l-15.4-22.3c16.2-11.8,34.7-17.7,55.6-17.7c15,0,27.2,3.8,36.7,11.2
			c9.5,7.5,14.2,19.4,14.2,35.6V179.1z M197.7,132.1v-6h-21.6c-13.8,0-20.7,4.3-20.7,12.9c0,4.4,1.6,7.8,4.9,10.2
			c3.3,2.4,8,3.6,14.1,3.6c6.1,0,11.5-1.9,16.2-5.6C195.4,143.3,197.7,138.3,197.7,132.1z"/>
		<path class="st1" d="M292.5,110.3v68.9h-34.4V55.7h34.4v13.7c10.4-10.6,22.1-15.8,35.1-15.8c13,0,23.9,4.6,32.7,13.8
			c8.8,9.2,13.2,21.4,13.2,36.7v75.1h-34.4v-69.8c0-19-7-28.5-20.9-28.5c-6.9,0-12.9,2.5-18,7.5C295.1,93.3,292.5,100.6,292.5,110.3
			z"/>
		<path class="st1" d="M442.5,18.7v37h25.7v24.7h-25.7v55.3c0,4.7,1.2,8.5,3.7,11.1c2.4,2.7,5.4,4,8.7,4c6.4,0,11.9-2.9,16.3-8.7
			l12.9,24.1c-10.7,9.8-22,14.7-33.9,14.7c-11.9,0-21.9-3.9-30.1-11.7c-8.2-7.8-12.3-18.4-12.3-31.9v-57h-17.1V55.7h17.1V30.5
			L442.5,18.7z"/>
		<path class="st1" d="M504,34.5c-3.9-3.9-5.9-8.7-5.9-14.3c0-5.7,2-10.4,5.9-14.3C507.9,2,512.7,0,518.3,0c5.7,0,10.4,2,14.3,5.9
			c3.9,3.9,5.9,8.7,5.9,14.3c0,5.7-2,10.4-5.9,14.3c-3.9,3.9-8.7,5.9-14.3,5.9C512.7,40.4,507.9,38.5,504,34.5z M535.6,179.1h-34.4
			V55.7h34.4V179.1z"/>
		<path class="st1" d="M595.8,110.3v68.9h-34.4V55.7h34.4v13.7c10.4-10.6,22.1-15.8,35.1-15.8c13,0,23.9,4.6,32.7,13.8
			c8.8,9.2,13.2,21.4,13.2,36.7v75.1h-34.4v-69.8c0-19-7-28.5-20.9-28.5c-6.9,0-12.9,2.5-18,7.5C598.4,93.3,595.8,100.6,595.8,110.3
			z"/>
		<path class="st1" d="M782.6,169.9c-9,7.3-20.3,11-34.1,11c-9.2,0-18.7-1.6-28.7-4.9c-9.9-3.3-18.9-8.1-26.9-14.6l15.2-21.6
			c12.9,9.9,26.5,14.9,41.1,14.9c4.4,0,8-0.9,10.6-2.6c2.6-1.8,3.9-4.1,3.9-7c0-2.9-1.8-5.6-5.4-8c-3.6-2.4-8.8-4.7-15.6-6.9
			c-6.8-2.1-12-4-15.6-5.5c-3.6-1.5-7.7-3.7-12.3-6.7c-9.3-5.8-14-14.4-14-25.8c0-11.4,4.6-20.7,13.8-27.9
			c9.2-7.2,21-10.8,35.6-10.8c14.5,0,29.1,4.9,43.6,14.7l-12.9,23c-10.7-7.3-21.4-11-32-11c-10.6,0-16,2.9-16,8.7
			c0,3.2,1.7,5.7,5,7.6c3.4,1.8,9,4,16.8,6.4c7.8,2.4,13.3,4.3,16.6,5.6c3.3,1.3,7.2,3.3,11.8,6.1c8.6,5.2,12.9,13.9,12.9,26.1
			C796,152.8,791.5,162.6,782.6,169.9"/>
	</g>
</g>
</svg>
